# xmcd CD database file
#
# Track frame offsets:
#	150
#	12452
#	25117
#	34495
#	44837
#	58070
#	70652
#	84230
#	95810
#	105747
#	111187
#	122057
#	135222
#	145532
#	158222
#	167722
#	178100
#	189597
#	200362
#
# Disc length: 2802 seconds
#
# Revision: 0
# Processed by: cddbd v1.5.2PL0 Copyright (c) Steve Scherf et al.
# Submitted via: CDex 1.51
#
DISCID=090af013
DTITLE=Various Artist - Hits Country Style
DYEAR=1995
DGENRE=Country
TTITLE0=I Walk The Line - Johnny Cash
TTITLE1=Give My Love to Rose - Johnny Cash
TTITLE2=Luther's Boogie - Johnny Cash
TTITLE3=The Ways of a Woman in Love  - Johnny Cash
TTITLE4=Folsom Prison Blues - Johnny Cash
TTITLE5=(I've Got a) Humpty Dumpty Heart - Hank Thompson
TTITLE6=Wild Side of Live - Hank Thompson
TTITLE7=Oklahoma Hills - Hank Thompson
TTITLE8=Smokey the Bar - Hank Thompson
TTITLE9=Are You Mine - Red Sovine
TTITLE10=Why Baby Why - Red Sovine
TTITLE11=Little Rosa - Red Sovine
TTITLE12=Alone With You - Faron Young
TTITLE13=Country Girl - Faron Young
TTITLE14=Hello Walls - Faron Young
TTITLE15=Let Me Be the One - Hank Locklin
TTITLE16=Send Me the Pillow that You Dream On - Hank Locklin
TTITLE17=Please Help Me I'm Falling - Hank Locklin
TTITLE18=We're Gonna Go Fishing - Hank Locklin
EXTD=YEAR: 1995
EXTT0=
EXTT1=
EXTT2=
EXTT3=
EXTT4=
EXTT5=
EXTT6=
EXTT7=
EXTT8=
EXTT9=
EXTT10=
EXTT11=
EXTT12=
EXTT13=
EXTT14=
EXTT15=
EXTT16=
EXTT17=
EXTT18=
PLAYORDER=
